<svg width="100" height="100" viewBox="0 0 100 100" fill="none" xmlns="http://www.w3.org/2000/svg">
<path d="M100 50C100 56.5661 98.7067 63.0679 96.194 69.1342C93.6812 75.2005 89.9983 80.7124 85.3553 85.3553C80.7124 89.9983 75.2004 93.6812 69.1342 96.194C63.0679 98.7067 56.5661 100 50 100C43.4339 100 36.9321 98.7067 30.8658 96.194C24.7995 93.6812 19.2876 89.9983 14.6447 85.3553C10.0017 80.7124 6.31876 75.2004 3.80602 69.1342C1.29329 63.0679 -5.74026e-07 56.5661 0 50L14.4779 50C14.4779 54.6648 15.3967 59.284 17.1819 63.5937C18.967 67.9034 21.5836 71.8194 24.8821 75.1179C28.1806 78.4164 32.0966 81.0329 36.4063 82.8181C40.716 84.6033 45.3352 85.5221 50 85.5221C54.6648 85.5221 59.284 84.6033 63.5937 82.8181C67.9034 81.033 71.8194 78.4164 75.1179 75.1179C78.4164 71.8194 81.033 67.9034 82.8181 63.5937C84.6033 59.284 85.5221 54.6648 85.5221 50H100Z" fill="white"/>
<path d="M0 50C0 43.4339 1.29329 36.9321 3.80602 30.8658C6.31876 24.7995 10.0017 19.2876 14.6447 14.6447C19.2876 10.0017 24.7996 6.31876 30.8658 3.80602C36.9321 1.29329 43.4339 -2.87013e-07 50 0C56.5661 2.87013e-07 63.0679 1.29329 69.1342 3.80602C75.2005 6.31876 80.7124 10.0017 85.3553 14.6447C89.9983 19.2876 93.6812 24.7996 96.194 30.8658C98.7067 36.9321 100 43.4339 100 50L85.5221 50C85.5221 45.3352 84.6033 40.716 82.8181 36.4063C81.033 32.0966 78.4164 28.1806 75.1179 24.8821C71.8194 21.5836 67.9034 18.9671 63.5937 17.1819C59.284 15.3967 54.6648 14.4779 50 14.4779C45.3352 14.4779 40.716 15.3967 36.4063 17.1819C32.0966 18.967 28.1806 21.5836 24.8821 24.8821C21.5836 28.1806 18.967 32.0966 17.1819 36.4063C15.3967 40.716 14.4779 45.3352 14.4779 50L0 50Z" fill="white"/>
<line x1="32" y1="52" x2="68" y2="52" stroke="white" stroke-width="10"/>
</svg>
