<svg width="170" height="170" viewBox="0 0 170 170" fill="none" xmlns="http://www.w3.org/2000/svg">
<circle cx="85" cy="85" r="85" fill="#998E28"/>
<path d="M21.8398 111V64.6182H39.5859C44.6947 64.6182 48.4782 65.7129 50.9365 67.9023C53.4333 70.0918 54.6816 73.1071 54.6816 76.9482C54.6816 79.1377 54.1823 81.0391 53.1836 82.6523C52.1849 84.2656 50.8789 85.514 49.2656 86.3975C51.1094 87.1273 52.7419 88.4333 54.1631 90.3154C55.5843 92.1976 56.2949 94.5407 56.2949 97.3447C56.2949 101.301 55.0273 104.566 52.4922 107.14C49.957 109.713 46.4232 111 41.8906 111H21.8398ZM30.4248 103.683H40.5078C42.39 103.683 44.0033 103.145 45.3477 102.069C46.7305 100.955 47.4219 99.3805 47.4219 97.3447C47.4219 95.4242 46.8073 93.8493 45.5781 92.6201C44.349 91.391 42.6012 90.7764 40.335 90.7764H30.4248V103.683ZM30.4248 83.5166H38.8945C40.9688 83.5166 42.6396 83.0365 43.9072 82.0762C45.1748 81.1159 45.8086 79.637 45.8086 77.6396C45.8086 73.8753 43.5615 71.9932 39.0674 71.9932H30.4248V83.5166ZM66.8619 87.8379C66.8619 80.5397 68.7057 74.682 72.3932 70.2646C76.0807 65.8089 80.9397 63.5811 86.9703 63.5811C93.0393 63.5811 97.8984 65.8089 101.547 70.2646C105.235 74.682 107.079 80.5397 107.079 87.8379C107.079 95.1361 105.235 100.994 101.547 105.411C97.8984 109.828 93.0393 112.037 86.9703 112.037C80.9013 112.037 76.023 109.828 72.3355 105.411C68.6865 100.994 66.8619 95.1361 66.8619 87.8379ZM75.735 87.8379C75.735 93.0234 76.7145 97.1335 78.6734 100.168C80.6708 103.202 83.4365 104.72 86.9703 104.72C90.4658 104.72 93.193 103.222 95.152 100.226C97.1494 97.1911 98.148 93.0618 98.148 87.8379C98.148 82.6523 97.1686 78.5423 95.2096 75.5078C93.2506 72.4733 90.5042 70.9561 86.9703 70.9561C83.4749 70.9561 80.7285 72.4733 78.7311 75.5078C76.7337 78.5423 75.735 82.6523 75.735 87.8379ZM114.189 111L128.881 87.2041L114.938 64.6182H124.963L130.264 74.3555C130.686 75.1621 131.282 76.2952 132.05 77.7549C132.818 79.1761 133.375 80.194 133.721 80.8086H133.951C134.72 79.349 135.91 77.1979 137.524 74.3555L142.824 64.6182H152.792L138.849 87.2041L153.599 111H143.689L137.696 100.398C135.584 96.6341 134.335 94.4255 133.951 93.7725H133.721C131.339 98.0745 130.11 100.283 130.033 100.398L124.099 111H114.189Z" fill="white"/>
</svg>
