<svg width="1319" height="598" viewBox="0 0 1319 598" fill="none" xmlns="http://www.w3.org/2000/svg">
<path d="M-461 212.278C-461 121.803 -359.963 68.0258 -284.913 118.555V118.555C-274.641 125.471 -263.301 130.652 -251.347 133.889L-144 162.961C-86.773 178.46 -26.8164 181.043 31.5314 170.524L253.23 130.556C299.305 122.25 346.48 122.097 392.608 130.104L582.295 163.03C639.117 172.893 697.4 170.353 753.148 155.583L844.224 131.453C904.902 115.377 968.51 113.806 1029.91 126.869L1068.11 134.998C1151 152.633 1237.5 137.237 1309.22 92.0833L1328.45 79.9721C1343.69 70.38 1360.29 63.1661 1377.7 58.5788V58.5788C1490.05 28.9741 1600 113.706 1600 229.887V481.751C1600 686.786 1433.79 853 1228.75 853H-164.697C-328.34 853 -461 720.34 -461 556.696V212.278Z" fill="#070917"/>
<path d="M320.5 388.5C320.5 577.381 77.8574 770 -2.5 770C-82.8574 770 -148 616.881 -148 428C-148 239.119 -82.8574 86 -2.5 86C77.8574 86 749 254 320.5 388.5Z" fill="#070917"/>
</svg>
