<svg width="139" height="52" viewBox="0 0 139 52" fill="none" xmlns="http://www.w3.org/2000/svg">
<path d="M0.0859375 50V1.25977H18.7344C24.1029 1.25977 28.0788 2.41016 30.6621 4.71094C33.2858 7.01172 34.5977 10.1803 34.5977 14.2168C34.5977 16.5176 34.0729 18.5156 33.0234 20.2109C31.974 21.9062 30.6016 23.2181 28.9062 24.1465C30.8438 24.9134 32.5592 26.2858 34.0527 28.2637C35.5462 30.2415 36.293 32.7038 36.293 35.6504C36.293 39.8079 34.9609 43.2389 32.2969 45.9434C29.6328 48.6478 25.9193 50 21.1562 50H0.0859375ZM9.10742 42.3105H19.7031C21.681 42.3105 23.3763 41.7454 24.7891 40.6152C26.2422 39.4447 26.9688 37.7897 26.9688 35.6504C26.9688 33.6322 26.3229 31.9772 25.0312 30.6855C23.7396 29.3939 21.903 28.748 19.5215 28.748H9.10742V42.3105ZM9.10742 21.1191H18.0078C20.1875 21.1191 21.9434 20.6146 23.2754 19.6055C24.6074 18.5964 25.2734 17.0423 25.2734 14.9434C25.2734 10.9876 22.9121 9.00977 18.1895 9.00977H9.10742V21.1191ZM47.3973 25.6602C47.3973 17.9909 49.3348 11.8353 53.2098 7.19336C57.0848 2.51107 62.1909 0.169922 68.5281 0.169922C74.9057 0.169922 80.0118 2.51107 83.8465 7.19336C87.7215 11.8353 89.659 17.9909 89.659 25.6602C89.659 33.3294 87.7215 39.485 83.8465 44.127C80.0118 48.7689 74.9057 51.0898 68.5281 51.0898C62.1505 51.0898 57.0242 48.7689 53.1492 44.127C49.3146 39.485 47.3973 33.3294 47.3973 25.6602ZM56.7215 25.6602C56.7215 31.1094 57.7508 35.4284 59.8094 38.6172C61.9083 41.806 64.8146 43.4004 68.5281 43.4004C72.2013 43.4004 75.0672 41.8262 77.1258 38.6777C79.2247 35.4889 80.2742 31.1497 80.2742 25.6602C80.2742 20.2109 79.2449 15.8919 77.1863 12.7031C75.1277 9.51432 72.2417 7.91992 68.5281 7.91992C64.8549 7.91992 61.9689 9.51432 59.8699 12.7031C57.771 15.8919 56.7215 20.2109 56.7215 25.6602ZM97.1305 50L112.57 24.9941L97.9176 1.25977H108.453L114.023 11.4922C114.467 12.3398 115.093 13.5306 115.9 15.0645C116.707 16.5579 117.293 17.6276 117.656 18.2734H117.898C118.705 16.7396 119.957 14.4792 121.652 11.4922L127.222 1.25977H137.697L123.045 24.9941L138.545 50H128.13L121.834 38.8594C119.614 34.9036 118.302 32.5827 117.898 31.8965H117.656C115.153 36.4173 113.862 38.7383 113.781 38.8594L107.545 50H97.1305Z" fill="black"/>
</svg>
