<svg width="25" height="24" viewBox="0 0 25 24" fill="none" xmlns="http://www.w3.org/2000/svg">
<path fill-rule="evenodd" clip-rule="evenodd" d="M7.81292 0.072C9.09724 0.0130909 9.50673 0 12.7783 0C16.0499 0 16.4594 0.0141818 17.7426 0.072C19.0258 0.129818 19.9017 0.333818 20.6682 0.629455C21.4707 0.931636 22.1988 1.404 22.801 2.01491C23.4142 2.61382 23.8872 3.33818 24.1894 4.13891C24.4872 4.90255 24.6908 5.77527 24.75 7.05164C24.8091 8.33345 24.8222 8.74145 24.8222 12C24.8222 15.2596 24.808 15.6676 24.75 16.9473C24.6919 18.2236 24.4872 19.0964 24.1894 19.86C23.8872 20.6608 23.4134 21.3864 22.801 21.9862C22.1988 22.5971 21.4707 23.0684 20.6682 23.3695C19.9017 23.6662 19.0258 23.8691 17.7448 23.928C16.4594 23.9869 16.0499 24 12.7783 24C9.50673 24 9.09724 23.9858 7.81292 23.928C6.53188 23.8702 5.65596 23.6662 4.88953 23.3695C4.08578 23.0683 3.35756 22.5963 2.75556 21.9862C2.14284 21.3869 1.66867 20.6617 1.36613 19.8611C1.06942 19.0975 0.865763 18.2247 0.806639 16.9484C0.747514 15.6665 0.734375 15.2585 0.734375 12C0.734375 8.74036 0.748609 8.33236 0.806639 7.05382C0.864668 5.77527 1.06942 4.90255 1.36613 4.13891C1.66912 3.33827 2.14364 2.61307 2.75666 2.01382C3.3578 1.40346 4.08529 0.931029 4.88843 0.629455C5.65487 0.333818 6.53079 0.130909 7.81182 0.072H7.81292ZM17.6451 2.232C16.3751 2.17418 15.994 2.16218 12.7783 2.16218C9.56257 2.16218 9.18154 2.17418 7.91146 2.232C6.73663 2.28545 6.0994 2.48073 5.67457 2.64545C5.11289 2.86364 4.71106 3.12218 4.28952 3.54218C3.88993 3.92951 3.58241 4.40104 3.38951 4.92218C3.22418 5.34545 3.0282 5.98036 2.97454 7.15091C2.91652 8.41636 2.90447 8.796 2.90447 12C2.90447 15.204 2.91652 15.5836 2.97454 16.8491C3.0282 18.0196 3.22418 18.6545 3.38951 19.0778C3.58222 19.5982 3.88988 20.0705 4.28952 20.4578C4.67821 20.856 5.15231 21.1625 5.67457 21.3545C6.0994 21.5193 6.73663 21.7145 7.91146 21.768C9.18154 21.8258 9.56148 21.8378 12.7783 21.8378C15.9951 21.8378 16.3751 21.8258 17.6451 21.768C18.82 21.7145 19.4572 21.5193 19.882 21.3545C20.4437 21.1364 20.8455 20.8778 21.2671 20.4578C21.6667 20.0705 21.9744 19.5982 22.1671 19.0778C22.3324 18.6545 22.5284 18.0196 22.5821 16.8491C22.6401 15.5836 22.6521 15.204 22.6521 12C22.6521 8.796 22.6401 8.41636 22.5821 7.15091C22.5284 5.98036 22.3324 5.34545 22.1671 4.92218C21.9481 4.36255 21.6886 3.96218 21.2671 3.54218C20.8783 3.14408 20.4051 2.83768 19.882 2.64545C19.4572 2.48073 18.82 2.28545 17.6451 2.232V2.232ZM11.24 15.6993C12.0991 16.0556 13.0557 16.1037 13.9465 15.8353C14.8372 15.567 15.6069 14.9988 16.1239 14.2279C16.6409 13.457 16.8733 12.5311 16.7813 11.6085C16.6893 10.6858 16.2787 9.82361 15.6196 9.16909C15.1994 8.7507 14.6913 8.43034 14.132 8.23107C13.5726 8.0318 12.9759 7.95858 12.3847 8.01667C11.7935 8.07477 11.2226 8.26274 10.7131 8.56705C10.2036 8.87136 9.76813 9.28445 9.43808 9.77657C9.10803 10.2687 8.8916 10.8276 8.80437 11.413C8.71713 11.9985 8.76127 12.596 8.93359 13.1624C9.10592 13.7288 9.40215 14.2501 9.80095 14.6888C10.1998 15.1275 10.6912 15.4726 11.24 15.6993ZM8.40088 7.63855C8.97573 7.06579 9.65818 6.61146 10.4093 6.30149C11.1603 5.99151 11.9653 5.83197 12.7783 5.83197C13.5913 5.83197 14.3963 5.99151 15.1473 6.30148C15.8984 6.61146 16.5809 7.06579 17.1557 7.63855C17.7306 8.2113 18.1866 8.89126 18.4977 9.6396C18.8088 10.3879 18.9689 11.19 18.9689 12C18.9689 12.81 18.8088 13.6121 18.4977 14.3604C18.1866 15.1087 17.7306 15.7887 17.1557 16.3615C15.9948 17.5182 14.4201 18.168 12.7783 18.168C11.1364 18.168 9.56184 17.5182 8.40088 16.3615C7.23992 15.2047 6.58769 13.6359 6.58769 12C6.58769 10.3641 7.23992 8.79528 8.40088 7.63855V7.63855ZM20.3419 6.75055C20.4843 6.61666 20.5984 6.45565 20.6773 6.27706C20.7561 6.09847 20.7982 5.90593 20.8011 5.71083C20.804 5.51574 20.7675 5.32205 20.6939 5.14125C20.6203 4.96044 20.511 4.79619 20.3725 4.65822C20.234 4.52026 20.0692 4.41137 19.8877 4.33802C19.7062 4.26467 19.5118 4.22834 19.316 4.23118C19.1202 4.23403 18.927 4.27599 18.7477 4.35458C18.5685 4.43317 18.4069 4.5468 18.2725 4.68873C18.0112 4.96476 17.8681 5.33141 17.8736 5.71083C17.8792 6.09026 18.0329 6.4526 18.3023 6.72092C18.5716 6.98924 18.9352 7.14243 19.316 7.14796C19.6969 7.15349 20.0648 7.01093 20.3419 6.75055V6.75055Z" fill="white"/>
</svg>
